<?xml version="1.0" standalone="no"?>
<!DOCTYPE svg PUBLIC "-//W3C//DTD SVG 20010904//EN"
 "http://www.w3.org/TR/2001/REC-SVG-20010904/DTD/svg10.dtd">
<svg version="1.0" xmlns="http://www.w3.org/2000/svg"
 width="900.000000pt" height="900.000000pt" viewBox="0 0 900.000000 900.000000"
 preserveAspectRatio="xMidYMid meet">
<metadata>
Created by potrace 1.11, written by Peter Selinger 2001-2013
</metadata>
<g transform="translate(0.000000,900.000000) scale(0.100000,-0.100000)"
fill="#000000" stroke="none">
<path d="M4912 6703 l3 -298 354 -5 354 -5 -1913 -2195 -1914 -2195 394 -3
c338 -2 396 0 410 13 9 8 776 887 1706 1953 l1689 1938 3 -298 2 -298 300 0
300 0 0 845 0 845 -845 0 -845 0 2 -297z"/>
<path d="M6000 3735 l0 -1155 -1153 0 -1154 0 -224 -257 c-123 -142 -237 -272
-253 -290 l-28 -33 1706 0 1706 0 0 1445 0 1445 -300 0 -300 0 0 -1155z"/>
</g>
</svg>
